<svg width="59" height="36" viewBox="0 0 59 36" fill="none" xmlns="http://www.w3.org/2000/svg">
<rect width="59" height="36" rx="3" fill="white"/>
<path d="M4.7 23V5.72H8.396V23H4.7ZM7.22 14.024L14.996 5.72H19.916L11.708 14.024H7.22ZM15.38 23L7.172 14.024H11.708L20.396 23H15.38ZM22.0203 23V5.72H25.7163V23H22.0203ZM33.2043 23V5.72H36.9003V23H33.2043ZM23.7483 12.584H34.8843V15.416H23.7483V12.584ZM39.2938 23V5.72H42.9898V23H39.2938ZM50.4778 23V5.72H54.1738V23H50.4778ZM41.0218 12.584H52.1578V15.416H41.0218V12.584Z" fill="#0D5BE1"/>
<path d="M5.268 34.072C4.52133 34.072 3.924 33.9067 3.476 33.576C3.028 33.24 2.76667 32.768 2.692 32.16H3.876C3.91333 32.4693 4.06267 32.7147 4.324 32.896C4.58533 33.072 4.91867 33.16 5.324 33.16C5.65467 33.16 5.908 33.1013 6.084 32.984C6.26533 32.8667 6.356 32.7093 6.356 32.512C6.356 32.3253 6.30267 32.176 6.196 32.064C6.08933 31.9467 5.90533 31.8533 5.644 31.784L4.572 31.488C4.02267 31.3333 3.62 31.1227 3.364 30.856C3.11333 30.584 2.988 30.2453 2.988 29.84C2.988 29.4933 3.076 29.1947 3.252 28.944C3.43333 28.688 3.68667 28.4933 4.012 28.36C4.33733 28.2213 4.71867 28.152 5.156 28.152C5.828 28.152 6.364 28.312 6.764 28.632C7.164 28.9467 7.39067 29.3653 7.444 29.888H6.26C6.20667 29.6053 6.076 29.3973 5.868 29.264C5.66533 29.1307 5.404 29.064 5.084 29.064C4.80667 29.064 4.58533 29.1173 4.42 29.224C4.25467 29.3307 4.172 29.4747 4.172 29.656C4.172 29.7947 4.21733 29.9227 4.308 30.04C4.39867 30.152 4.588 30.248 4.876 30.328L5.948 30.624C6.51333 30.7787 6.91867 30.992 7.164 31.264C7.41467 31.5307 7.54 31.8693 7.54 32.28C7.54 32.856 7.34 33.2987 6.94 33.608C6.54 33.9173 5.98267 34.072 5.268 34.072ZM8.11875 34V28.24H9.35075V34H8.11875ZM8.69475 34V33.056H12.4068V34H8.69475ZM8.69475 31.52V30.592H12.1267V31.52H8.69475ZM8.69475 29.184V28.24H12.3108V29.184H8.69475ZM15.6358 34.08C15.2198 34.08 14.8358 34.008 14.4838 33.864C14.1318 33.7147 13.8251 33.5067 13.5638 33.24C13.3078 32.9733 13.1078 32.6587 12.9638 32.296C12.8198 31.928 12.7478 31.528 12.7478 31.096C12.7478 30.664 12.8171 30.2693 12.9558 29.912C13.0998 29.5547 13.2998 29.2453 13.5558 28.984C13.8171 28.7173 14.1238 28.5147 14.4758 28.376C14.8278 28.232 15.2145 28.16 15.6358 28.16C16.1105 28.16 16.5371 28.2533 16.9158 28.44C17.2998 28.6213 17.6118 28.88 17.8518 29.216C18.0971 29.5467 18.2465 29.936 18.2998 30.384H17.0998C17.0305 29.9733 16.8625 29.664 16.5958 29.456C16.3291 29.2427 16.0118 29.136 15.6438 29.136C15.3185 29.136 15.0305 29.2133 14.7798 29.368C14.5345 29.5227 14.3425 29.7467 14.2038 30.04C14.0651 30.328 13.9958 30.6773 13.9958 31.088C13.9958 31.504 14.0651 31.864 14.2038 32.168C14.3478 32.4667 14.5451 32.6987 14.7958 32.864C15.0465 33.024 15.3345 33.104 15.6598 33.104C16.0065 33.104 16.3131 33 16.5798 32.792C16.8465 32.584 17.0198 32.2747 17.0998 31.864H18.3158C18.2465 32.312 18.0891 32.704 17.8438 33.04C17.5985 33.3707 17.2865 33.6267 16.9078 33.808C16.5291 33.9893 16.1051 34.08 15.6358 34.08ZM21.6358 34.08C21.2198 34.08 20.8358 34.008 20.4838 33.864C20.1318 33.7147 19.8251 33.5067 19.5638 33.24C19.3078 32.9733 19.1078 32.6587 18.9638 32.296C18.8198 31.928 18.7478 31.528 18.7478 31.096C18.7478 30.664 18.8171 30.2693 18.9558 29.912C19.0998 29.5547 19.2998 29.2453 19.5558 28.984C19.8171 28.7173 20.1238 28.5147 20.4758 28.376C20.8278 28.232 21.2145 28.16 21.6358 28.16C22.1105 28.16 22.5371 28.2533 22.9158 28.44C23.2998 28.6213 23.6118 28.88 23.8518 29.216C24.0971 29.5467 24.2465 29.936 24.2998 30.384H23.0998C23.0305 29.9733 22.8625 29.664 22.5958 29.456C22.3291 29.2427 22.0118 29.136 21.6438 29.136C21.3185 29.136 21.0305 29.2133 20.7798 29.368C20.5345 29.5227 20.3425 29.7467 20.2038 30.04C20.0651 30.328 19.9958 30.6773 19.9958 31.088C19.9958 31.504 20.0651 31.864 20.2038 32.168C20.3478 32.4667 20.5451 32.6987 20.7958 32.864C21.0465 33.024 21.3345 33.104 21.6598 33.104C22.0065 33.104 22.3131 33 22.5798 32.792C22.8465 32.584 23.0198 32.2747 23.0998 31.864H24.3158C24.2465 32.312 24.0891 32.704 23.8438 33.04C23.5985 33.3707 23.2865 33.6267 22.9078 33.808C22.5291 33.9893 22.1051 34.08 21.6358 34.08ZM27.6998 34.08C27.2731 34.08 26.8785 34.008 26.5158 33.864C26.1585 33.72 25.8465 33.5173 25.5798 33.256C25.3185 32.9893 25.1131 32.6747 24.9638 32.312C24.8198 31.944 24.7478 31.5387 24.7478 31.096C24.7478 30.5093 24.8731 29.9973 25.1238 29.56C25.3745 29.1173 25.7211 28.7733 26.1638 28.528C26.6118 28.2827 27.1211 28.16 27.6918 28.16C28.2731 28.16 28.7851 28.2827 29.2278 28.528C29.6705 28.7733 30.0171 29.1173 30.2678 29.56C30.5238 30.0027 30.6518 30.5173 30.6518 31.104C30.6518 31.5413 30.5771 31.944 30.4278 32.312C30.2838 32.6747 30.0785 32.9893 29.8118 33.256C29.5505 33.5173 29.2385 33.72 28.8758 33.864C28.5185 34.008 28.1265 34.08 27.6998 34.08ZM27.6918 33.104C28.0278 33.104 28.3238 33.0187 28.5798 32.848C28.8358 32.6773 29.0358 32.4427 29.1798 32.144C29.3291 31.84 29.4038 31.488 29.4038 31.088C29.4038 30.6933 29.3318 30.3493 29.1878 30.056C29.0438 29.7627 28.8438 29.536 28.5878 29.376C28.3318 29.216 28.0331 29.136 27.6918 29.136C27.3558 29.136 27.0598 29.216 26.8038 29.376C26.5478 29.536 26.3478 29.7627 26.2038 30.056C26.0651 30.344 25.9958 30.688 25.9958 31.088C25.9958 31.4933 26.0678 31.848 26.2118 32.152C26.3558 32.4507 26.5558 32.6853 26.8118 32.856C27.0678 33.0213 27.3611 33.104 27.6918 33.104ZM31.1675 32.304V31.344H34.0955V32.304H31.1675ZM37.0258 34.072C36.2791 34.072 35.6818 33.9067 35.2338 33.576C34.7858 33.24 34.5245 32.768 34.4498 32.16H35.6338C35.6711 32.4693 35.8205 32.7147 36.0818 32.896C36.3431 33.072 36.6765 33.16 37.0818 33.16C37.4125 33.16 37.6658 33.1013 37.8418 32.984C38.0231 32.8667 38.1138 32.7093 38.1138 32.512C38.1138 32.3253 38.0605 32.176 37.9538 32.064C37.8471 31.9467 37.6631 31.8533 37.4018 31.784L36.3298 31.488C35.7805 31.3333 35.3778 31.1227 35.1218 30.856C34.8711 30.584 34.7458 30.2453 34.7458 29.84C34.7458 29.4933 34.8338 29.1947 35.0098 28.944C35.1911 28.688 35.4445 28.4933 35.7698 28.36C36.0951 28.2213 36.4765 28.152 36.9138 28.152C37.5858 28.152 38.1218 28.312 38.5218 28.632C38.9218 28.9467 39.1485 29.3653 39.2018 29.888H38.0178C37.9645 29.6053 37.8338 29.3973 37.6258 29.264C37.4231 29.1307 37.1618 29.064 36.8418 29.064C36.5645 29.064 36.3431 29.1173 36.1778 29.224C36.0125 29.3307 35.9298 29.4747 35.9298 29.656C35.9298 29.7947 35.9751 29.9227 36.0658 30.04C36.1565 30.152 36.3458 30.248 36.6338 30.328L37.7058 30.624C38.2711 30.7787 38.6765 30.992 38.9218 31.264C39.1725 31.5307 39.2978 31.8693 39.2978 32.28C39.2978 32.856 39.0978 33.2987 38.6978 33.608C38.2978 33.9173 37.7405 34.072 37.0258 34.072ZM42.6686 34.08C42.2419 34.08 41.8472 34.008 41.4846 33.864C41.1272 33.72 40.8152 33.5173 40.5486 33.256C40.2872 32.9893 40.0819 32.6747 39.9326 32.312C39.7886 31.944 39.7166 31.5387 39.7166 31.096C39.7166 30.5093 39.8419 29.9973 40.0926 29.56C40.3432 29.1173 40.6899 28.7733 41.1326 28.528C41.5806 28.2827 42.0899 28.16 42.6606 28.16C43.2419 28.16 43.7539 28.2827 44.1966 28.528C44.6392 28.7733 44.9859 29.1173 45.2366 29.56C45.4926 30.0027 45.6206 30.5173 45.6206 31.104C45.6206 31.5413 45.5459 31.944 45.3966 32.312C45.2526 32.6747 45.0472 32.9893 44.7806 33.256C44.5192 33.5173 44.2072 33.72 43.8446 33.864C43.4872 34.008 43.0952 34.08 42.6686 34.08ZM42.6606 33.104C42.9966 33.104 43.2926 33.0187 43.5486 32.848C43.8046 32.6773 44.0046 32.4427 44.1486 32.144C44.2979 31.84 44.3726 31.488 44.3726 31.088C44.3726 30.6933 44.3006 30.3493 44.1566 30.056C44.0126 29.7627 43.8126 29.536 43.5566 29.376C43.3006 29.216 43.0019 29.136 42.6606 29.136C42.3246 29.136 42.0286 29.216 41.7726 29.376C41.5166 29.536 41.3166 29.7627 41.1726 30.056C41.0339 30.344 40.9646 30.688 40.9646 31.088C40.9646 31.4933 41.0366 31.848 41.1806 32.152C41.3246 32.4507 41.5246 32.6853 41.7806 32.856C42.0366 33.0213 42.3299 33.104 42.6606 33.104ZM46.2274 34V28.24H48.8034C49.2194 28.24 49.582 28.312 49.8914 28.456C50.2007 28.5947 50.4407 28.792 50.6114 29.048C50.782 29.304 50.8674 29.6027 50.8674 29.944C50.8674 30.28 50.782 30.576 50.6114 30.832C50.4407 31.0827 50.2007 31.28 49.8914 31.424C49.582 31.5627 49.2194 31.632 48.8034 31.632H47.2034V30.728H48.7714C49.0647 30.728 49.2887 30.6613 49.4434 30.528C49.6034 30.3893 49.6834 30.1973 49.6834 29.952C49.6834 29.7013 49.606 29.512 49.4514 29.384C49.2967 29.2507 49.07 29.184 48.7714 29.184H47.4594V34H46.2274ZM49.4754 34L47.1634 31.008H48.4674L51.1394 34H49.4754ZM52.6111 34V33.12H54.0991C54.3658 33.12 54.5658 33.048 54.6991 32.904C54.8378 32.7547 54.9071 32.5493 54.9071 32.288C54.9071 32.0213 54.8325 31.8107 54.6831 31.656C54.5391 31.5013 54.3311 31.424 54.0591 31.424H52.6111V30.544H53.9951C54.2458 30.544 54.4351 30.4853 54.5631 30.368C54.6965 30.2453 54.7631 30.0667 54.7631 29.832C54.7631 29.5973 54.6991 29.4213 54.5711 29.304C54.4485 29.1813 54.2645 29.12 54.0191 29.12H52.6111V28.24H54.2831C54.7951 28.24 55.2085 28.3707 55.5231 28.632C55.8378 28.8933 55.9951 29.248 55.9951 29.696C55.9951 29.9787 55.9285 30.2213 55.7951 30.424C55.6618 30.6267 55.4831 30.7813 55.2591 30.888C55.0351 30.9947 54.7845 31.048 54.5071 31.048L54.5471 30.88C54.8458 30.88 55.1151 30.944 55.3551 31.072C55.6005 31.2 55.7951 31.3813 55.9391 31.616C56.0831 31.8453 56.1551 32.1173 56.1551 32.432C56.1551 32.7467 56.0805 33.024 55.9311 33.264C55.7871 33.4987 55.5818 33.68 55.3151 33.808C55.0538 33.936 54.7445 34 54.3871 34H52.6111ZM51.6031 34V28.24H52.8351V34H51.6031Z" fill="#0D5BE1"/>
<path d="M3.5 26H55.5" stroke="#0D5BE1"/>
</svg>
